%TF.GenerationSoftware,KiCad,Pcbnew,8.0.0*%
%TF.CreationDate,2025-03-28T23:26:52+01:00*%
%TF.ProjectId,pcb_art_hef,7063625f-6172-4745-9f68-65662e6b6963,rev?*%
%TF.SameCoordinates,Original*%
%TF.FileFunction,Profile,NP*%
%FSLAX46Y46*%
G04 Gerber Fmt 4.6, Leading zero omitted, Abs format (unit mm)*
G04 Created by KiCad (PCBNEW 8.0.0) date 2025-03-28 23:26:52*
%MOMM*%
%LPD*%
G01*
G04 APERTURE LIST*
%TA.AperFunction,Profile*%
%ADD10C,0.100000*%
%TD*%
G04 APERTURE END LIST*
D10*
X146859404Y-125960792D02*
X144678361Y-128219207D01*
X112397148Y-160423047D02*
G75*
G02*
X105177927Y-153240466I13586822J20875447D01*
G01*
X144678361Y-128219207D02*
G75*
G02*
X147244380Y-134467459I-18694361J-11328393D01*
G01*
X101615282Y-144700567D02*
G75*
G02*
X101599969Y-134467608I24368698J5152957D01*
G01*
X150373018Y-134491959D02*
X147244378Y-134467460D01*
X131190961Y-118364007D02*
G75*
G02*
X137408208Y-120964165I-5206991J-21183583D01*
G01*
X131142066Y-163915203D02*
G75*
G02*
X120903961Y-163931606I-5158106J24367593D01*
G01*
X105127714Y-125931348D02*
X107357282Y-128204112D01*
X104774961Y-134467607D02*
G75*
G02*
X107357283Y-128204113I21208969J-5079993D01*
G01*
X120903961Y-163931607D02*
X120903961Y-160807407D01*
X131142066Y-163915204D02*
X131165561Y-160807407D01*
X120923259Y-115159599D02*
X120907477Y-118353285D01*
X139688497Y-118749257D02*
X137408208Y-120964165D01*
X139688497Y-118749258D02*
G75*
G02*
X146859404Y-125960792I-13704527J-20798342D01*
G01*
X101615282Y-144700567D02*
X104789695Y-144757229D01*
X131166377Y-115185173D02*
X131190961Y-118364007D01*
X101599968Y-134467608D02*
X104774961Y-134467607D01*
X146840211Y-153163868D02*
G75*
G02*
X139600223Y-160403858I-20856241J13616248D01*
G01*
X105177926Y-153240467D02*
X107391161Y-150977607D01*
X112367702Y-118691360D02*
X114655561Y-120929408D01*
X147243760Y-144729207D02*
G75*
G02*
X144664375Y-150943675I-21259860J5181607D01*
G01*
X150351556Y-144705711D02*
X147243761Y-144729207D01*
X105127715Y-125931348D02*
G75*
G02*
X112367703Y-118691362I20856225J-13616242D01*
G01*
X146840212Y-153163868D02*
X144664372Y-150943673D01*
X107391162Y-150977607D02*
G75*
G02*
X104789696Y-144757229I18592778J11429987D01*
G01*
X120923259Y-115159601D02*
G75*
G02*
X131166377Y-115185175I5060701J-24388009D01*
G01*
X120903961Y-160807405D02*
G75*
G02*
X114655890Y-158241462I5079999J21259795D01*
G01*
X112397148Y-160423047D02*
X114655890Y-158241463D01*
X114655561Y-120929409D02*
G75*
G02*
X120907477Y-118353286I11328379J-18618151D01*
G01*
X139600222Y-160403857D02*
X137398507Y-158216731D01*
X150373018Y-134491959D02*
G75*
G02*
X150351556Y-144705711I-24389058J-5055651D01*
G01*
X137398507Y-158216730D02*
G75*
G02*
X131165560Y-160807404I-11414537J18669120D01*
G01*
M02*
