%TF.GenerationSoftware,KiCad,Pcbnew,8.0.0*%
%TF.CreationDate,2025-03-28T23:26:52+01:00*%
%TF.ProjectId,pcb_art_hef,7063625f-6172-4745-9f68-65662e6b6963,rev?*%
%TF.SameCoordinates,Original*%
%TF.FileFunction,Soldermask,Bot*%
%TF.FilePolarity,Negative*%
%FSLAX46Y46*%
G04 Gerber Fmt 4.6, Leading zero omitted, Abs format (unit mm)*
G04 Created by KiCad (PCBNEW 8.0.0) date 2025-03-28 23:26:52*
%MOMM*%
%LPD*%
G01*
G04 APERTURE LIST*
%ADD10C,0.000000*%
G04 APERTURE END LIST*
D10*
%TO.C,G\u002A\u002A\u002A*%
G36*
X121635760Y-142918522D02*
G01*
X122013296Y-143297649D01*
X121669504Y-143551155D01*
X120957711Y-144011895D01*
X120189733Y-144390452D01*
X119386399Y-144678406D01*
X118568537Y-144867340D01*
X118323642Y-144903429D01*
X118033119Y-144940497D01*
X118033119Y-144412104D01*
X118033119Y-143883710D01*
X118240636Y-143849574D01*
X118958739Y-143693462D01*
X119643413Y-143470266D01*
X120272546Y-143188702D01*
X120824029Y-142857486D01*
X120905432Y-142799106D01*
X121258224Y-142539395D01*
X121635760Y-142918522D01*
G37*
G36*
X124425609Y-138801462D02*
G01*
X124269869Y-139612726D01*
X124015185Y-140414836D01*
X123670890Y-141185780D01*
X123246315Y-141903551D01*
X122925985Y-142338288D01*
X122807361Y-142485680D01*
X122434872Y-142110314D01*
X122062382Y-141734948D01*
X122321690Y-141382704D01*
X122659676Y-140846887D01*
X122949652Y-140229763D01*
X123182882Y-139553498D01*
X123350630Y-138840256D01*
X123371754Y-138718456D01*
X123405890Y-138510939D01*
X123934284Y-138510939D01*
X124462677Y-138510939D01*
X124425609Y-138801462D01*
G37*
G36*
X116856357Y-131033191D02*
G01*
X116910554Y-131087866D01*
X116928185Y-131202185D01*
X116927691Y-131388851D01*
X116926365Y-131538445D01*
X116926365Y-132076529D01*
X116629616Y-132111406D01*
X116181668Y-132194742D01*
X115688184Y-132338371D01*
X115183155Y-132528647D01*
X114700569Y-132751922D01*
X114274413Y-132994549D01*
X114061517Y-133142540D01*
X113906965Y-133255690D01*
X113786462Y-133335661D01*
X113727893Y-133364534D01*
X113672990Y-133327624D01*
X113560875Y-133228697D01*
X113411104Y-133085456D01*
X113327817Y-133002355D01*
X112969721Y-132640176D01*
X113108065Y-132530921D01*
X113702092Y-132115356D01*
X114360923Y-131748999D01*
X115054845Y-131445213D01*
X115754143Y-131217360D01*
X116289982Y-131099977D01*
X116564511Y-131051951D01*
X116747156Y-131025455D01*
X116856357Y-131033191D01*
G37*
G36*
X122861321Y-133520058D02*
G01*
X122965144Y-133642181D01*
X123098718Y-133822940D01*
X123249303Y-134043702D01*
X123404159Y-134285829D01*
X123550547Y-134530685D01*
X123668632Y-134745885D01*
X123978445Y-135419456D01*
X124209429Y-136102561D01*
X124373235Y-136832253D01*
X124421974Y-137141331D01*
X124459073Y-137404185D01*
X123929974Y-137404185D01*
X123703275Y-137402094D01*
X123525127Y-137396469D01*
X123419489Y-137388288D01*
X123400875Y-137382630D01*
X123391273Y-137322017D01*
X123365751Y-137179941D01*
X123329233Y-136983632D01*
X123317205Y-136920001D01*
X123125684Y-136178292D01*
X122840890Y-135456560D01*
X122475290Y-134784279D01*
X122308582Y-134534922D01*
X122059276Y-134183524D01*
X122410285Y-133829367D01*
X122569663Y-133672617D01*
X122700566Y-133551402D01*
X122783351Y-133483571D01*
X122799989Y-133475209D01*
X122861321Y-133520058D01*
G37*
G36*
X118404464Y-131059547D02*
G01*
X118821517Y-131123297D01*
X119294641Y-131236515D01*
X119786752Y-131388912D01*
X120260768Y-131570195D01*
X120290764Y-131583033D01*
X120495137Y-131680280D01*
X120740399Y-131810957D01*
X121006394Y-131962666D01*
X121272967Y-132123007D01*
X121519963Y-132279583D01*
X121727226Y-132419995D01*
X121874603Y-132531845D01*
X121938734Y-132596777D01*
X121915963Y-132653474D01*
X121834225Y-132765013D01*
X121713822Y-132909003D01*
X121575056Y-133063048D01*
X121438228Y-133204757D01*
X121323641Y-133311734D01*
X121251597Y-133361588D01*
X121244304Y-133362749D01*
X121188135Y-133331623D01*
X121068866Y-133251693D01*
X120912209Y-133140197D01*
X120910679Y-133139082D01*
X120365032Y-132795826D01*
X119748756Y-132502979D01*
X119095720Y-132274492D01*
X118451651Y-132126281D01*
X118060788Y-132060962D01*
X118044769Y-131542507D01*
X118028750Y-131024052D01*
X118404464Y-131059547D01*
G37*
G36*
X112216418Y-133511969D02*
G01*
X112325112Y-133610488D01*
X112472777Y-133753131D01*
X112555492Y-133835716D01*
X112734188Y-134024438D01*
X112835648Y-134154351D01*
X112868009Y-134237079D01*
X112858250Y-134268116D01*
X112674565Y-134528143D01*
X112479046Y-134834420D01*
X112292767Y-135151428D01*
X112136799Y-135443650D01*
X112050671Y-135629297D01*
X111955810Y-135880160D01*
X111859667Y-136174221D01*
X111769866Y-136483263D01*
X111694033Y-136779067D01*
X111639794Y-137033418D01*
X111614775Y-137218098D01*
X111613947Y-137245268D01*
X111613947Y-137404185D01*
X111070154Y-137404185D01*
X110526361Y-137404185D01*
X110548235Y-137224338D01*
X110700170Y-136396701D01*
X110949135Y-135579359D01*
X111284647Y-134805893D01*
X111331477Y-134715245D01*
X111458338Y-134486721D01*
X111603948Y-134244002D01*
X111755640Y-134005913D01*
X111900749Y-133791277D01*
X112026611Y-133618921D01*
X112120560Y-133507670D01*
X112165761Y-133475209D01*
X112216418Y-133511969D01*
G37*
G36*
X111239822Y-138516030D02*
G01*
X111412537Y-138529610D01*
X111512415Y-138549145D01*
X111525605Y-138557644D01*
X111547854Y-138627179D01*
X111587226Y-138782244D01*
X111638201Y-139000035D01*
X111695256Y-139257747D01*
X111696431Y-139263199D01*
X111755193Y-139528213D01*
X111833607Y-139870704D01*
X111924679Y-140260730D01*
X112021418Y-140668350D01*
X112116829Y-141063621D01*
X112119234Y-141073486D01*
X112211600Y-141454223D01*
X112279397Y-141742248D01*
X112324766Y-141952252D01*
X112349850Y-142098925D01*
X112356791Y-142196958D01*
X112347730Y-142261043D01*
X112324810Y-142305871D01*
X112302792Y-142332418D01*
X112214010Y-142413326D01*
X112160189Y-142439915D01*
X112110181Y-142397585D01*
X112014918Y-142284398D01*
X111891316Y-142121059D01*
X111832369Y-142038717D01*
X111409109Y-141366092D01*
X111063117Y-140665627D01*
X110801765Y-139955993D01*
X110632420Y-139255859D01*
X110579594Y-138865052D01*
X110546527Y-138510939D01*
X111021633Y-138510939D01*
X111239822Y-138516030D01*
G37*
G36*
X117852609Y-135576159D02*
G01*
X118359121Y-135715102D01*
X118804703Y-135945951D01*
X119192394Y-136270295D01*
X119205443Y-136283874D01*
X119537482Y-136697541D01*
X119762408Y-137132776D01*
X119882798Y-137596395D01*
X119901229Y-138095215D01*
X119899547Y-138120822D01*
X119810737Y-138632654D01*
X119624069Y-139101691D01*
X119347582Y-139516907D01*
X118989313Y-139867274D01*
X118557302Y-140141765D01*
X118362801Y-140228986D01*
X118020996Y-140325836D01*
X117630883Y-140373159D01*
X117236787Y-140369245D01*
X116883033Y-140312382D01*
X116804495Y-140289165D01*
X116395525Y-140120901D01*
X116047589Y-139898472D01*
X115719027Y-139595519D01*
X115407539Y-139190358D01*
X115196104Y-138745580D01*
X115086391Y-138272259D01*
X115080070Y-137781471D01*
X115178810Y-137284294D01*
X115316688Y-136926893D01*
X115568352Y-136511962D01*
X115897466Y-136159629D01*
X116287558Y-135878668D01*
X116722155Y-135677853D01*
X117184784Y-135565958D01*
X117658973Y-135551757D01*
X117852609Y-135576159D01*
G37*
G36*
X133235864Y-122266563D02*
G01*
X133412210Y-122336031D01*
X133649395Y-122442193D01*
X133932428Y-122577177D01*
X134246316Y-122733114D01*
X134576069Y-122902135D01*
X134906695Y-123076367D01*
X135223202Y-123247943D01*
X135510598Y-123408991D01*
X135753893Y-123551641D01*
X135938095Y-123668024D01*
X136048212Y-123750268D01*
X136073206Y-123783945D01*
X136021596Y-123801735D01*
X135878202Y-123835756D01*
X135660180Y-123882714D01*
X135384687Y-123939313D01*
X135068876Y-124002259D01*
X134729906Y-124068256D01*
X134384930Y-124134010D01*
X134051105Y-124196226D01*
X133745586Y-124251608D01*
X133485529Y-124296861D01*
X133288091Y-124328691D01*
X133170426Y-124343803D01*
X133154143Y-124344590D01*
X133128780Y-124318133D01*
X133109959Y-124231383D01*
X133096944Y-124073144D01*
X133088997Y-123832221D01*
X133085383Y-123497417D01*
X133084971Y-123293074D01*
X133087499Y-122953608D01*
X133094586Y-122663248D01*
X133105492Y-122437484D01*
X133119474Y-122291803D01*
X133135348Y-122241658D01*
X133235864Y-122266563D01*
G37*
G36*
X113830192Y-142632660D02*
G01*
X113983290Y-142734377D01*
X114057352Y-142786579D01*
X114701056Y-143180852D01*
X115406104Y-143499457D01*
X116142968Y-143729911D01*
X116442181Y-143795025D01*
X116649189Y-143833825D01*
X116809917Y-143863067D01*
X116897133Y-143877827D01*
X116904810Y-143878695D01*
X116914073Y-143930025D01*
X116921342Y-144067990D01*
X116925631Y-144268555D01*
X116926365Y-144404403D01*
X116927726Y-144640891D01*
X116919480Y-144796577D01*
X116883136Y-144884187D01*
X116800202Y-144916444D01*
X116652186Y-144906076D01*
X116420598Y-144865806D01*
X116289982Y-144842338D01*
X115794364Y-144730816D01*
X115261976Y-144569435D01*
X114744198Y-144375263D01*
X114365612Y-144203069D01*
X114172895Y-144103185D01*
X114032769Y-144014432D01*
X113930576Y-143915437D01*
X113851656Y-143784829D01*
X113781351Y-143601234D01*
X113705000Y-143343281D01*
X113657491Y-143170647D01*
X113598134Y-142945085D01*
X113568865Y-142800418D01*
X113567919Y-142711544D01*
X113593533Y-142653363D01*
X113619120Y-142624534D01*
X113671193Y-142586276D01*
X113733855Y-142586139D01*
X113830192Y-142632660D01*
G37*
G36*
X137677870Y-124940391D02*
G01*
X137864035Y-125059870D01*
X138114923Y-125257173D01*
X138163300Y-125297907D01*
X138378580Y-125485376D01*
X138615332Y-125699363D01*
X138859768Y-125926488D01*
X139098096Y-126153374D01*
X139316528Y-126366643D01*
X139501273Y-126552918D01*
X139638542Y-126698821D01*
X139714544Y-126790974D01*
X139725275Y-126813206D01*
X139672707Y-126828932D01*
X139522669Y-126862327D01*
X139286579Y-126911246D01*
X138975854Y-126973543D01*
X138601911Y-127047070D01*
X138176167Y-127129681D01*
X137710039Y-127219229D01*
X137214944Y-127313568D01*
X136702300Y-127410551D01*
X136183525Y-127508032D01*
X135670034Y-127603864D01*
X135173245Y-127695901D01*
X134704576Y-127781995D01*
X134275443Y-127860001D01*
X133897264Y-127927771D01*
X133581456Y-127983159D01*
X133339436Y-128024019D01*
X133182621Y-128048204D01*
X133125374Y-128054077D01*
X133113451Y-128000832D01*
X133104208Y-127853052D01*
X133098024Y-127626852D01*
X133095279Y-127338347D01*
X133096352Y-127003653D01*
X133097705Y-126878150D01*
X133112640Y-125704184D01*
X135270810Y-125304597D01*
X135749709Y-125216440D01*
X136198307Y-125134843D01*
X136604083Y-125062008D01*
X136954520Y-125000142D01*
X137237098Y-124951446D01*
X137439300Y-124918127D01*
X137548606Y-124902387D01*
X137560542Y-124901438D01*
X137677870Y-124940391D01*
G37*
G36*
X137189975Y-140226952D02*
G01*
X137645944Y-140228799D01*
X138009581Y-140232271D01*
X138290054Y-140237688D01*
X138496532Y-140245374D01*
X138638186Y-140255648D01*
X138724183Y-140268833D01*
X138763694Y-140285251D01*
X138767857Y-140301296D01*
X138736249Y-140360451D01*
X138656788Y-140502181D01*
X138536907Y-140713566D01*
X138384037Y-140981686D01*
X138205612Y-141293621D01*
X138009063Y-141636452D01*
X137801822Y-141997259D01*
X137591323Y-142363122D01*
X137384996Y-142721122D01*
X137190275Y-143058339D01*
X137014592Y-143361853D01*
X136865379Y-143618744D01*
X136750068Y-143816094D01*
X136676092Y-143940981D01*
X136651420Y-143980337D01*
X136614608Y-143953668D01*
X136554051Y-143869662D01*
X136501238Y-143781801D01*
X136404235Y-143616571D01*
X136270410Y-143386777D01*
X136107133Y-143105226D01*
X135921774Y-142784724D01*
X135721702Y-142438076D01*
X135514285Y-142078087D01*
X135306895Y-141717565D01*
X135106899Y-141369314D01*
X134921668Y-141046141D01*
X134758570Y-140760851D01*
X134624975Y-140526250D01*
X134528253Y-140355144D01*
X134475772Y-140260338D01*
X134468413Y-140245439D01*
X134521776Y-140241243D01*
X134673968Y-140237367D01*
X134913140Y-140233916D01*
X135227446Y-140230994D01*
X135605039Y-140228704D01*
X136034072Y-140227152D01*
X136502697Y-140226442D01*
X136632504Y-140226408D01*
X137189975Y-140226952D01*
G37*
G36*
X140168195Y-129269874D02*
G01*
X140167933Y-129655702D01*
X140166145Y-129945163D01*
X140161334Y-130152565D01*
X140152001Y-130292214D01*
X140136646Y-130378420D01*
X140113772Y-130425490D01*
X140081879Y-130447733D01*
X140043686Y-130458474D01*
X139968228Y-130473346D01*
X139793644Y-130506238D01*
X139529697Y-130555350D01*
X139186147Y-130618885D01*
X138772756Y-130695044D01*
X138299285Y-130782029D01*
X137775496Y-130878043D01*
X137211150Y-130981287D01*
X136616009Y-131089963D01*
X136571246Y-131098129D01*
X135976123Y-131206867D01*
X135412574Y-131310184D01*
X134890156Y-131406305D01*
X134418426Y-131493454D01*
X134006943Y-131569857D01*
X133665265Y-131633738D01*
X133402948Y-131683322D01*
X133229550Y-131716835D01*
X133154630Y-131732501D01*
X133153046Y-131732974D01*
X133129207Y-131719775D01*
X133111896Y-131653890D01*
X133100570Y-131524003D01*
X133094683Y-131318799D01*
X133093690Y-131026959D01*
X133097046Y-130637170D01*
X133097709Y-130583783D01*
X133112640Y-129410457D01*
X136460570Y-128796310D01*
X137059497Y-128686395D01*
X137629889Y-128581624D01*
X138161778Y-128483836D01*
X138645194Y-128394866D01*
X139070169Y-128316553D01*
X139426734Y-128250733D01*
X139704918Y-128199243D01*
X139894754Y-128163921D01*
X139986273Y-128146604D01*
X139988348Y-128146192D01*
X140168195Y-128110220D01*
X140168195Y-129269874D01*
G37*
G36*
X140166436Y-137107504D02*
G01*
X140165588Y-137602803D01*
X140163117Y-137999445D01*
X140157434Y-138309448D01*
X140146951Y-138544830D01*
X140130079Y-138717610D01*
X140105229Y-138839804D01*
X140070813Y-138923432D01*
X140025242Y-138980512D01*
X139966928Y-139023061D01*
X139908979Y-139055277D01*
X139846086Y-139070181D01*
X139714032Y-139082903D01*
X139507467Y-139093548D01*
X139221044Y-139102220D01*
X138849411Y-139109021D01*
X138387221Y-139114058D01*
X137829123Y-139117433D01*
X137169770Y-139119250D01*
X136598296Y-139119654D01*
X133408484Y-139119654D01*
X133246727Y-138957898D01*
X133084971Y-138796141D01*
X133084971Y-137740468D01*
X133086740Y-137412361D01*
X133091665Y-137125810D01*
X133099176Y-136897776D01*
X133108700Y-136745220D01*
X133119667Y-136685105D01*
X133120531Y-136684795D01*
X133179848Y-136675075D01*
X133338562Y-136647059D01*
X133587220Y-136602461D01*
X133916366Y-136542998D01*
X134316547Y-136470385D01*
X134778309Y-136386339D01*
X135292199Y-136292574D01*
X135848761Y-136190806D01*
X136438542Y-136082751D01*
X136482296Y-136074727D01*
X137079266Y-135965243D01*
X137647703Y-135861008D01*
X138177602Y-135763856D01*
X138658957Y-135675619D01*
X139081762Y-135598133D01*
X139436013Y-135533230D01*
X139711703Y-135482745D01*
X139898827Y-135448510D01*
X139987379Y-135432360D01*
X139988348Y-135432185D01*
X140168195Y-135399711D01*
X140166436Y-137107504D01*
G37*
G36*
X140123156Y-131801902D02*
G01*
X140141348Y-131874332D01*
X140154272Y-132014518D01*
X140162604Y-132233424D01*
X140167017Y-132542012D01*
X140168195Y-132910946D01*
X140168195Y-134058677D01*
X136723424Y-134689556D01*
X136118758Y-134800401D01*
X135544866Y-134905810D01*
X135011256Y-135004022D01*
X134527437Y-135093278D01*
X134102918Y-135171818D01*
X133747205Y-135237882D01*
X133469809Y-135289711D01*
X133280235Y-135325545D01*
X133187994Y-135343624D01*
X133181812Y-135345018D01*
X133149240Y-135346333D01*
X133124890Y-135322379D01*
X133107578Y-135259541D01*
X133096119Y-135144201D01*
X133089327Y-134962746D01*
X133086017Y-134701559D01*
X133085004Y-134347024D01*
X133084971Y-134232451D01*
X133085684Y-133848213D01*
X133088614Y-133560380D01*
X133094946Y-133354689D01*
X133105864Y-133216876D01*
X133122555Y-133132675D01*
X133146203Y-133087822D01*
X133177993Y-133068054D01*
X133181812Y-133066864D01*
X133252181Y-133052141D01*
X133421834Y-133019451D01*
X133681154Y-132970574D01*
X134020526Y-132907290D01*
X134430335Y-132831381D01*
X134900963Y-132744627D01*
X135422796Y-132648808D01*
X135986217Y-132545706D01*
X136581612Y-132437100D01*
X136654252Y-132423872D01*
X137251844Y-132314912D01*
X137817853Y-132211391D01*
X138342768Y-132115070D01*
X138817076Y-132027711D01*
X139231263Y-131951073D01*
X139575816Y-131886919D01*
X139841223Y-131837008D01*
X140017971Y-131803101D01*
X140096546Y-131786959D01*
X140099023Y-131786267D01*
X140123156Y-131801902D01*
G37*
G36*
X127482982Y-120899304D02*
G01*
X128862118Y-121051482D01*
X130209495Y-121301806D01*
X131512443Y-121648368D01*
X131618522Y-121681501D01*
X131950548Y-121786429D01*
X131965330Y-123174843D01*
X131980112Y-124563257D01*
X131826986Y-124596049D01*
X131525849Y-124679376D01*
X131322932Y-124786972D01*
X131206260Y-124932841D01*
X131163854Y-125130986D01*
X131177812Y-125355049D01*
X131255842Y-125633149D01*
X131399009Y-125827040D01*
X131602344Y-125931582D01*
X131752610Y-125949283D01*
X131978217Y-125949283D01*
X131978217Y-127105454D01*
X131977856Y-127503076D01*
X131974670Y-127803609D01*
X131965504Y-128020640D01*
X131947206Y-128167757D01*
X131916622Y-128258546D01*
X131870598Y-128306594D01*
X131805980Y-128325487D01*
X131719614Y-128328813D01*
X131694255Y-128328804D01*
X131512407Y-128370329D01*
X131336986Y-128474995D01*
X131214384Y-128612936D01*
X131197663Y-128648487D01*
X131170667Y-128797320D01*
X131171048Y-128994999D01*
X131179071Y-129071826D01*
X131257426Y-129345433D01*
X131402352Y-129536991D01*
X131607583Y-129640122D01*
X131753732Y-129656909D01*
X131980463Y-129656909D01*
X131965506Y-130805166D01*
X131950548Y-131953423D01*
X131812204Y-131970342D01*
X131513748Y-132036978D01*
X131310267Y-132156219D01*
X131196066Y-132334682D01*
X131165453Y-132578982D01*
X131176930Y-132708545D01*
X131253216Y-132995330D01*
X131390296Y-133190095D01*
X131587754Y-133292391D01*
X131735263Y-133309196D01*
X131980509Y-133309196D01*
X131965529Y-134422421D01*
X131950548Y-135535646D01*
X131701529Y-135627588D01*
X131492973Y-135737140D01*
X131372156Y-135889041D01*
X131329706Y-136101223D01*
X131343825Y-136311911D01*
X131413318Y-136557792D01*
X131537262Y-136752615D01*
X131697890Y-136874910D01*
X131835616Y-136906146D01*
X131978217Y-136906146D01*
X131980646Y-137943728D01*
X131985411Y-138392329D01*
X131997677Y-138738411D01*
X132017932Y-138989905D01*
X132046664Y-139154746D01*
X132057170Y-139188938D01*
X132218070Y-139499394D01*
X132457316Y-139783289D01*
X132746963Y-140014409D01*
X133059066Y-140166541D01*
X133118205Y-140184248D01*
X133345535Y-140245050D01*
X134634438Y-142479423D01*
X134899186Y-142935951D01*
X135150376Y-143364457D01*
X135382019Y-143755054D01*
X135588129Y-144097857D01*
X135762716Y-144382977D01*
X135899792Y-144600529D01*
X135993369Y-144740624D01*
X136035224Y-144792161D01*
X136096043Y-144843842D01*
X136120426Y-144908085D01*
X136111631Y-145017049D01*
X136075609Y-145190842D01*
X135972572Y-145583517D01*
X135834467Y-146009038D01*
X135670672Y-146445834D01*
X135490566Y-146872330D01*
X135303526Y-147266956D01*
X135118930Y-147608137D01*
X134946156Y-147874303D01*
X134865668Y-147974151D01*
X134771783Y-148076123D01*
X134692123Y-148145809D01*
X134619489Y-148175300D01*
X134546681Y-148156688D01*
X134466500Y-148082062D01*
X134371745Y-147943514D01*
X134255217Y-147733135D01*
X134109717Y-147443013D01*
X133928044Y-147065242D01*
X133807413Y-146811593D01*
X133543271Y-146321188D01*
X133264666Y-145936358D01*
X132965828Y-145652341D01*
X132640987Y-145464379D01*
X132284372Y-145367712D01*
X132037376Y-145351556D01*
X131667946Y-145400070D01*
X131311617Y-145544645D01*
X130964014Y-145788595D01*
X130620761Y-146135230D01*
X130277484Y-146587865D01*
X130152073Y-146778949D01*
X129829596Y-147284495D01*
X129556309Y-147705089D01*
X129324525Y-148050720D01*
X129126561Y-148331380D01*
X128954730Y-148557059D01*
X128801347Y-148737748D01*
X128658727Y-148883437D01*
X128519183Y-149004118D01*
X128375031Y-149109780D01*
X128341952Y-149131991D01*
X128077394Y-149278808D01*
X127819918Y-149370980D01*
X127599044Y-149399279D01*
X127520096Y-149388878D01*
X127419997Y-149324172D01*
X127315017Y-149175512D01*
X127202398Y-148936857D01*
X127079383Y-148602169D01*
X126943216Y-148165407D01*
X126911339Y-148055438D01*
X126727328Y-147448236D01*
X126547906Y-146933099D01*
X126365199Y-146492120D01*
X126171331Y-146107393D01*
X125958425Y-145761011D01*
X125811744Y-145555444D01*
X125435913Y-145115811D01*
X125051601Y-144786166D01*
X124657800Y-144566072D01*
X124253504Y-144455095D01*
X123837704Y-144452799D01*
X123462490Y-144539994D01*
X123240705Y-144623753D01*
X123025483Y-144725536D01*
X122808618Y-144852563D01*
X122581903Y-145012050D01*
X122337132Y-145211215D01*
X122066098Y-145457278D01*
X121760596Y-145757455D01*
X121412418Y-146118966D01*
X121013359Y-146549027D01*
X120555212Y-147054858D01*
X120376559Y-147254294D01*
X119859520Y-147817353D01*
X119393494Y-148290184D01*
X118971725Y-148676965D01*
X118587460Y-148981873D01*
X118233946Y-149209084D01*
X117904429Y-149362778D01*
X117592156Y-149447129D01*
X117290373Y-149466317D01*
X116992326Y-149424517D01*
X116905117Y-149401436D01*
X116699390Y-149300528D01*
X116461127Y-149115949D01*
X116205713Y-148863792D01*
X115948533Y-148560148D01*
X115704972Y-148221110D01*
X115570957Y-148006001D01*
X115361653Y-147626652D01*
X115137346Y-147181347D01*
X114916841Y-146709515D01*
X114718940Y-146250584D01*
X114641809Y-146057595D01*
X114553259Y-145829306D01*
X114978428Y-145964322D01*
X115863354Y-146188939D01*
X116781740Y-146314601D01*
X117716002Y-146340556D01*
X118648553Y-146266051D01*
X119308926Y-146149808D01*
X120219138Y-145895349D01*
X121086727Y-145539080D01*
X121909488Y-145082225D01*
X122685216Y-144526006D01*
X123402771Y-143880591D01*
X124055890Y-143153461D01*
X124610852Y-142377120D01*
X125066433Y-141553774D01*
X125421413Y-140685628D01*
X125671988Y-139786746D01*
X125824871Y-138830605D01*
X125867546Y-137871732D01*
X125800255Y-136914449D01*
X125623238Y-135963079D01*
X125418452Y-135255548D01*
X125076806Y-134405741D01*
X124638613Y-133598331D01*
X124112500Y-132841932D01*
X123507096Y-132145161D01*
X122831029Y-131516633D01*
X122092929Y-130964963D01*
X121301424Y-130498769D01*
X120465143Y-130126664D01*
X120181105Y-130026082D01*
X119746651Y-129889820D01*
X119355528Y-129787429D01*
X118978729Y-129714674D01*
X118587251Y-129667321D01*
X118152089Y-129641136D01*
X117644239Y-129631887D01*
X117479742Y-129631767D01*
X117062301Y-129634490D01*
X116731944Y-129641727D01*
X116465114Y-129655209D01*
X116238255Y-129676669D01*
X116027809Y-129707839D01*
X115810221Y-129750449D01*
X115781517Y-129756630D01*
X114864302Y-130005012D01*
X114009479Y-130340564D01*
X113208080Y-130768213D01*
X112451137Y-131292884D01*
X111729681Y-131919503D01*
X111584265Y-132062085D01*
X110935975Y-132777328D01*
X110390650Y-133526207D01*
X109943365Y-134317689D01*
X109589194Y-135160742D01*
X109323211Y-136064335D01*
X109278810Y-136259337D01*
X109234656Y-136479458D01*
X109202159Y-136689510D01*
X109179587Y-136913048D01*
X109165207Y-137173629D01*
X109157289Y-137494810D01*
X109154098Y-137900147D01*
X109153947Y-137957562D01*
X109154515Y-138365014D01*
X109159408Y-138685133D01*
X109170339Y-138941233D01*
X109189020Y-139156625D01*
X109217164Y-139354622D01*
X109256486Y-139558536D01*
X109279270Y-139662847D01*
X109543141Y-140618980D01*
X109892410Y-141506954D01*
X110329738Y-142330683D01*
X110857790Y-143094080D01*
X111479230Y-143801059D01*
X112196719Y-144455534D01*
X112901409Y-144985449D01*
X113342561Y-145289806D01*
X113578515Y-145926190D01*
X113950656Y-146864502D01*
X114330640Y-147693299D01*
X114718370Y-148412431D01*
X115113745Y-149021747D01*
X115516667Y-149521097D01*
X115927038Y-149910332D01*
X116344757Y-150189301D01*
X116408027Y-150221618D01*
X116562585Y-150292968D01*
X116697776Y-150339140D01*
X116845148Y-150365492D01*
X117036248Y-150377384D01*
X117302623Y-150380173D01*
X117341398Y-150380150D01*
X117627942Y-150376618D01*
X117837532Y-150363328D01*
X118003798Y-150335043D01*
X118160369Y-150286527D01*
X118297416Y-150231262D01*
X118603633Y-150085233D01*
X118909849Y-149905741D01*
X119225265Y-149684847D01*
X119559080Y-149414613D01*
X119920491Y-149087100D01*
X120318699Y-148694368D01*
X120762903Y-148228478D01*
X121262301Y-147681492D01*
X121298043Y-147641658D01*
X121798676Y-147092291D01*
X122240206Y-146628182D01*
X122628164Y-146244745D01*
X122968081Y-145937398D01*
X123265487Y-145701554D01*
X123525912Y-145532631D01*
X123754889Y-145426043D01*
X123957947Y-145377207D01*
X124035263Y-145372813D01*
X124260204Y-145422611D01*
X124508599Y-145563345D01*
X124765848Y-145782023D01*
X125017351Y-146065653D01*
X125248508Y-146401242D01*
X125310104Y-146507236D01*
X125445189Y-146766441D01*
X125571634Y-147048454D01*
X125697206Y-147373649D01*
X125829672Y-147762398D01*
X125976798Y-148235075D01*
X126006253Y-148333379D01*
X126156220Y-148816794D01*
X126291955Y-149205114D01*
X126421134Y-149511731D01*
X126551434Y-149750035D01*
X126690531Y-149933418D01*
X126846101Y-150075271D01*
X127025821Y-150188983D01*
X127088258Y-150220918D01*
X127423001Y-150331907D01*
X127779386Y-150344540D01*
X128166376Y-150258143D01*
X128511129Y-150113770D01*
X128797474Y-149955185D01*
X129065589Y-149767346D01*
X129325826Y-149538937D01*
X129588534Y-149258645D01*
X129864064Y-148915155D01*
X130162765Y-148497154D01*
X130494989Y-147993327D01*
X130595425Y-147835340D01*
X130872601Y-147403412D01*
X131105373Y-147059105D01*
X131302804Y-146793139D01*
X131473960Y-146596231D01*
X131627903Y-146459101D01*
X131773699Y-146372467D01*
X131920410Y-146327048D01*
X132077102Y-146313562D01*
X132081590Y-146313554D01*
X132238364Y-146328279D01*
X132365046Y-146387176D01*
X132507764Y-146512324D01*
X132517760Y-146522337D01*
X132597572Y-146607166D01*
X132670859Y-146698851D01*
X132745819Y-146812187D01*
X132830654Y-146961972D01*
X132933563Y-147163001D01*
X133062746Y-147430070D01*
X133226403Y-147777976D01*
X133293975Y-147922930D01*
X133513596Y-148352109D01*
X133728772Y-148679622D01*
X133948138Y-148913705D01*
X134180327Y-149062592D01*
X134433973Y-149134518D01*
X134574435Y-149144220D01*
X134880348Y-149099941D01*
X135174265Y-148960075D01*
X135459625Y-148721358D01*
X135739868Y-148380526D01*
X136018433Y-147934312D01*
X136186521Y-147613989D01*
X136335101Y-147292812D01*
X136490323Y-146920123D01*
X136643039Y-146521656D01*
X136784098Y-146123143D01*
X136904350Y-145750320D01*
X136994646Y-145428918D01*
X137042428Y-145206800D01*
X137143123Y-144922281D01*
X137256959Y-144764098D01*
X137320620Y-144676264D01*
X137432546Y-144503087D01*
X137586213Y-144255384D01*
X137775098Y-143943975D01*
X137992677Y-143579679D01*
X138232426Y-143173314D01*
X138487822Y-142735699D01*
X138669822Y-142421067D01*
X138928189Y-141975465D01*
X139172187Y-141559789D01*
X139395841Y-141183850D01*
X139593176Y-140857458D01*
X139758218Y-140590423D01*
X139884992Y-140392555D01*
X139967521Y-140273664D01*
X139996888Y-140242191D01*
X140412934Y-140068332D01*
X140740937Y-139848829D01*
X140999054Y-139569207D01*
X141152923Y-139320430D01*
X141302618Y-139036647D01*
X141320275Y-137116178D01*
X141324496Y-136601589D01*
X141328118Y-136186601D01*
X141333245Y-135860171D01*
X141341981Y-135611258D01*
X141356432Y-135428820D01*
X141378701Y-135301815D01*
X141410895Y-135219202D01*
X141455117Y-135169938D01*
X141513472Y-135142982D01*
X141588065Y-135127292D01*
X141681000Y-135111826D01*
X141703142Y-135107554D01*
X141899243Y-135016283D01*
X142041775Y-134850443D01*
X142103924Y-134642858D01*
X142104706Y-134616004D01*
X142069859Y-134317982D01*
X141973526Y-134076991D01*
X141826293Y-133907232D01*
X141638746Y-133822904D01*
X141510769Y-133819279D01*
X141330287Y-133840350D01*
X141330287Y-132689370D01*
X141330287Y-131538390D01*
X141464385Y-131538390D01*
X141591753Y-131503546D01*
X141740333Y-131417075D01*
X141775469Y-131389467D01*
X141873538Y-131299987D01*
X141923069Y-131218392D01*
X141935889Y-131106179D01*
X141923823Y-130924843D01*
X141922539Y-130910624D01*
X141863773Y-130607453D01*
X141748027Y-130394411D01*
X141570728Y-130264147D01*
X141505629Y-130240345D01*
X141330287Y-130187398D01*
X141330287Y-129507121D01*
X141332519Y-129247414D01*
X141338609Y-129033430D01*
X141347646Y-128886297D01*
X141358720Y-128827144D01*
X141359594Y-128826843D01*
X141401356Y-128871375D01*
X141489014Y-128993401D01*
X141611427Y-129175569D01*
X141757458Y-129400526D01*
X141915965Y-129650919D01*
X142075811Y-129909394D01*
X142225854Y-130158600D01*
X142336483Y-130348630D01*
X142952753Y-131536880D01*
X143486132Y-132790797D01*
X143932897Y-134098704D01*
X144289323Y-135448927D01*
X144551685Y-136829790D01*
X144657650Y-137625536D01*
X144691304Y-138023128D01*
X144714237Y-138503929D01*
X144726636Y-139041013D01*
X144728688Y-139607452D01*
X144720582Y-140176320D01*
X144702503Y-140720689D01*
X144674639Y-141213633D01*
X144637177Y-141628224D01*
X144629378Y-141692856D01*
X144391184Y-143158499D01*
X144053903Y-144575597D01*
X143618001Y-145943194D01*
X143083941Y-147260329D01*
X142452191Y-148526046D01*
X141723214Y-149739383D01*
X140897477Y-150899384D01*
X139975444Y-152005089D01*
X139256992Y-152762263D01*
X138191115Y-153752109D01*
X137068761Y-154646994D01*
X135891759Y-155446030D01*
X134661935Y-156148328D01*
X133381117Y-156753000D01*
X132051132Y-157259160D01*
X130673807Y-157665918D01*
X129250970Y-157972386D01*
X128215254Y-158128471D01*
X127949284Y-158155216D01*
X127607255Y-158179999D01*
X127212228Y-158202065D01*
X126787261Y-158220657D01*
X126355416Y-158235017D01*
X125939752Y-158244389D01*
X125563328Y-158248017D01*
X125249204Y-158245143D01*
X125020440Y-158235011D01*
X125005668Y-158233791D01*
X124266072Y-158163750D01*
X123612196Y-158088404D01*
X123019093Y-158003730D01*
X122461814Y-157905706D01*
X121915413Y-157790308D01*
X121354940Y-157653514D01*
X121270374Y-157631494D01*
X119907967Y-157218335D01*
X118595013Y-156708700D01*
X117335200Y-156106884D01*
X116132220Y-155417182D01*
X114989763Y-154643890D01*
X113911518Y-153791302D01*
X112901176Y-152863713D01*
X111962427Y-151865419D01*
X111098961Y-150800715D01*
X110314468Y-149673896D01*
X109612638Y-148489257D01*
X108997161Y-147251094D01*
X108471727Y-145963701D01*
X108040027Y-144631374D01*
X107705751Y-143258407D01*
X107472588Y-141849097D01*
X107434374Y-141526843D01*
X107340912Y-140199679D01*
X107347080Y-138845588D01*
X107451069Y-137481901D01*
X107651068Y-136125949D01*
X107945265Y-134795063D01*
X108245177Y-133766363D01*
X108733946Y-132436537D01*
X109317616Y-131157810D01*
X109991512Y-129934228D01*
X110750961Y-128769836D01*
X111591289Y-127668679D01*
X112507823Y-126634802D01*
X113495887Y-125672252D01*
X114550809Y-124785073D01*
X115667914Y-123977311D01*
X116842530Y-123253011D01*
X118069981Y-122616219D01*
X119345594Y-122070980D01*
X120664695Y-121621340D01*
X122022611Y-121271343D01*
X122869713Y-121108216D01*
X123568366Y-121000932D01*
X124218116Y-120924712D01*
X124861314Y-120876115D01*
X125540310Y-120851705D01*
X126084753Y-120847183D01*
X127482982Y-120899304D01*
G37*
%TD*%
M02*
