%TF.GenerationSoftware,KiCad,Pcbnew,8.0.0*%
%TF.CreationDate,2025-03-28T23:26:51+01:00*%
%TF.ProjectId,pcb_art_hef,7063625f-6172-4745-9f68-65662e6b6963,rev?*%
%TF.SameCoordinates,Original*%
%TF.FileFunction,Copper,L2,Bot*%
%TF.FilePolarity,Positive*%
%FSLAX46Y46*%
G04 Gerber Fmt 4.6, Leading zero omitted, Abs format (unit mm)*
G04 Created by KiCad (PCBNEW 8.0.0) date 2025-03-28 23:26:51*
%MOMM*%
%LPD*%
G01*
G04 APERTURE LIST*
%TA.AperFunction,ViaPad*%
%ADD10C,6.000000*%
%TD*%
%TA.AperFunction,ViaPad*%
%ADD11C,4.000000*%
%TD*%
G04 APERTURE END LIST*
D10*
%TO.N,GND*%
X117449600Y-137871200D03*
D11*
X126060161Y-117678207D03*
%TD*%
%TA.AperFunction,Conductor*%
%TO.N,GND*%
G36*
X126559983Y-114644079D02*
G01*
X126563998Y-114644173D01*
X127590673Y-114689288D01*
X127594753Y-114689552D01*
X128618638Y-114777139D01*
X128622693Y-114777570D01*
X129642090Y-114907481D01*
X129646129Y-114908081D01*
X130659492Y-115080130D01*
X130662993Y-115080790D01*
X131088100Y-115168942D01*
X131141238Y-115199270D01*
X131166402Y-115255041D01*
X131166994Y-115265113D01*
X131190960Y-118364005D01*
X131190961Y-118364007D01*
X131657849Y-118481494D01*
X131661490Y-118482486D01*
X132399379Y-118698936D01*
X132585103Y-118753417D01*
X132589284Y-118754744D01*
X132736048Y-118804956D01*
X133499763Y-119066244D01*
X133503843Y-119067742D01*
X134232172Y-119353552D01*
X134399598Y-119419254D01*
X134403644Y-119420946D01*
X135282941Y-119811787D01*
X135286909Y-119813657D01*
X136148033Y-120243066D01*
X136151914Y-120245110D01*
X136993401Y-120712368D01*
X136996725Y-120714299D01*
X137408208Y-120964165D01*
X139631154Y-118804955D01*
X139686068Y-118777974D01*
X139746354Y-118788423D01*
X139755023Y-118793582D01*
X140113203Y-119032225D01*
X140116126Y-119034249D01*
X140944429Y-119630273D01*
X140947648Y-119632692D01*
X141433047Y-120013209D01*
X141750536Y-120262097D01*
X141753670Y-120264659D01*
X142530011Y-120926541D01*
X142533018Y-120929213D01*
X143229201Y-121574016D01*
X143281495Y-121622450D01*
X143284424Y-121625277D01*
X144003751Y-122348679D01*
X144006561Y-122351624D01*
X144657208Y-123062124D01*
X144695534Y-123103975D01*
X144698212Y-123107023D01*
X145355689Y-123887077D01*
X145358248Y-123890243D01*
X145983097Y-124696660D01*
X145985523Y-124699928D01*
X146576824Y-125531534D01*
X146578839Y-125534478D01*
X146815839Y-125894596D01*
X146832035Y-125953599D01*
X146810457Y-126010853D01*
X146804354Y-126017794D01*
X144678361Y-128219206D01*
X144678360Y-128219207D01*
X144803180Y-128427744D01*
X144926187Y-128633252D01*
X144928078Y-128636555D01*
X145391022Y-129483002D01*
X145393041Y-129486897D01*
X145817894Y-130352755D01*
X145819739Y-130356736D01*
X146205812Y-131240571D01*
X146207479Y-131244630D01*
X146554016Y-132144712D01*
X146555501Y-132148840D01*
X146861814Y-133063382D01*
X146863115Y-133067572D01*
X147128679Y-133995047D01*
X147129666Y-133998764D01*
X147244378Y-134467460D01*
X147244377Y-134467460D01*
X147276455Y-134467711D01*
X150292660Y-134491329D01*
X150350699Y-134510691D01*
X150386274Y-134560471D01*
X150388924Y-134570730D01*
X150474474Y-134994389D01*
X150475119Y-134997910D01*
X150641530Y-136009169D01*
X150642111Y-136013216D01*
X150766603Y-137030279D01*
X150767015Y-137034346D01*
X150849403Y-138055618D01*
X150849648Y-138059699D01*
X150889801Y-139083540D01*
X150889877Y-139087628D01*
X150887724Y-140112250D01*
X150887631Y-140116337D01*
X150843175Y-141139999D01*
X150842913Y-141144079D01*
X150756230Y-142165020D01*
X150755800Y-142169086D01*
X150627041Y-143185570D01*
X150626444Y-143189615D01*
X150455776Y-144200206D01*
X150455116Y-144203723D01*
X150367727Y-144627322D01*
X150337453Y-144680492D01*
X150281707Y-144705713D01*
X150271517Y-144706316D01*
X147243760Y-144729206D01*
X147127397Y-145195553D01*
X147126399Y-145199246D01*
X146857901Y-146121953D01*
X146856589Y-146126117D01*
X146547759Y-147035837D01*
X146546265Y-147039939D01*
X146197628Y-147935157D01*
X146195955Y-147939189D01*
X145808177Y-148818192D01*
X145806327Y-148822146D01*
X145380180Y-149683183D01*
X145378158Y-149687052D01*
X144914356Y-150528664D01*
X144912446Y-150531977D01*
X144664372Y-150943673D01*
X146784245Y-153106760D01*
X146811471Y-153161554D01*
X146801291Y-153221887D01*
X146796159Y-153230596D01*
X146557109Y-153592707D01*
X146555085Y-153595656D01*
X146503891Y-153667398D01*
X145958293Y-154431979D01*
X145955844Y-154435265D01*
X145325091Y-155245987D01*
X145322508Y-155249169D01*
X144658736Y-156033090D01*
X144656023Y-156036162D01*
X143960392Y-156791917D01*
X143957554Y-156794875D01*
X143231228Y-157521199D01*
X143228271Y-157524036D01*
X142472515Y-158219665D01*
X142469443Y-158222378D01*
X141685520Y-158886147D01*
X141682337Y-158888730D01*
X140871613Y-159519482D01*
X140868327Y-159521931D01*
X140032011Y-160118716D01*
X140029050Y-160120749D01*
X139667414Y-160359497D01*
X139608435Y-160375779D01*
X139551150Y-160354283D01*
X139543104Y-160347118D01*
X137398507Y-158216731D01*
X137398506Y-158216731D01*
X136985753Y-158465962D01*
X136982436Y-158467879D01*
X136138475Y-158933910D01*
X136134595Y-158935942D01*
X135271098Y-159364064D01*
X135267132Y-159365922D01*
X134385559Y-159755429D01*
X134381515Y-159757110D01*
X133483556Y-160107253D01*
X133479441Y-160108753D01*
X132566900Y-160418829D01*
X132562723Y-160420146D01*
X131637088Y-160689638D01*
X131633388Y-160690638D01*
X131165562Y-160807405D01*
X131165559Y-160807408D01*
X131165558Y-160807803D01*
X131142671Y-163835170D01*
X131123324Y-163893217D01*
X131073554Y-163928805D01*
X131063683Y-163931379D01*
X130638849Y-164019050D01*
X130635316Y-164019712D01*
X129622319Y-164190680D01*
X129618264Y-164191279D01*
X128599269Y-164320148D01*
X128595194Y-164320578D01*
X127571726Y-164407164D01*
X127567636Y-164407424D01*
X126541522Y-164451574D01*
X126537424Y-164451666D01*
X125510319Y-164453310D01*
X125506222Y-164453232D01*
X124479925Y-164412365D01*
X124475834Y-164412117D01*
X123452121Y-164328810D01*
X123448044Y-164328393D01*
X122428662Y-164202789D01*
X122424606Y-164202204D01*
X121411019Y-164034472D01*
X121407493Y-164033822D01*
X121334723Y-164019050D01*
X120983266Y-163947705D01*
X120930000Y-163917599D01*
X120904602Y-163861934D01*
X120903961Y-163850684D01*
X120903961Y-160807406D01*
X120435283Y-160692707D01*
X120431565Y-160691720D01*
X119504113Y-160426158D01*
X119499923Y-160424857D01*
X118585417Y-160118552D01*
X118581288Y-160117067D01*
X117681220Y-159770531D01*
X117677162Y-159768864D01*
X116793360Y-159382802D01*
X116789379Y-159380957D01*
X115923548Y-158956113D01*
X115919653Y-158954094D01*
X115073227Y-158491159D01*
X115069890Y-158489248D01*
X114655890Y-158241462D01*
X112454151Y-160367991D01*
X112399160Y-160394817D01*
X112338903Y-160384197D01*
X112330949Y-160379480D01*
X111970250Y-160142097D01*
X111967302Y-160140079D01*
X111938730Y-160119761D01*
X111447632Y-159770531D01*
X111134600Y-159547927D01*
X111131327Y-159545497D01*
X110323878Y-158919702D01*
X110320708Y-158917139D01*
X109890652Y-158554539D01*
X109539692Y-158258628D01*
X109536657Y-158255960D01*
X108783402Y-157565846D01*
X108780485Y-157563061D01*
X108408066Y-157192532D01*
X108056302Y-156842553D01*
X108053472Y-156839620D01*
X107359553Y-156089901D01*
X107356846Y-156086853D01*
X106694382Y-155309211D01*
X106691803Y-155306054D01*
X106061908Y-154501798D01*
X106059462Y-154498538D01*
X106012827Y-154433660D01*
X105463083Y-153668860D01*
X105461053Y-153665926D01*
X105222345Y-153307215D01*
X105205848Y-153248296D01*
X105227133Y-153190933D01*
X105233980Y-153183155D01*
X107391162Y-150977607D01*
X107391161Y-150977606D01*
X107391162Y-150977605D01*
X107141190Y-150565934D01*
X107139259Y-150562611D01*
X106671743Y-149720666D01*
X106669699Y-149716785D01*
X106240080Y-148855245D01*
X106238210Y-148851278D01*
X105847160Y-147971521D01*
X105845468Y-147967474D01*
X105493780Y-147071276D01*
X105492275Y-147067177D01*
X105482956Y-147039939D01*
X105180622Y-146156257D01*
X105179295Y-146152077D01*
X105171073Y-146124049D01*
X104908221Y-145227983D01*
X104907221Y-145224309D01*
X104900450Y-145197401D01*
X104789695Y-144757229D01*
X104789694Y-144757228D01*
X101694485Y-144701980D01*
X101636641Y-144682037D01*
X101601566Y-144631903D01*
X101599290Y-144622981D01*
X101511606Y-144197566D01*
X101510957Y-144194103D01*
X101340249Y-143181485D01*
X101339662Y-143177500D01*
X101211024Y-142158970D01*
X101210597Y-142154909D01*
X101124203Y-141131928D01*
X101123948Y-141127932D01*
X101079945Y-140102219D01*
X101079856Y-140098213D01*
X101078319Y-139071578D01*
X101078398Y-139067486D01*
X101119329Y-138041719D01*
X101119576Y-138037648D01*
X101202907Y-137014413D01*
X101203315Y-137010429D01*
X101328904Y-135991508D01*
X101329487Y-135987469D01*
X101493555Y-134996144D01*
X101497150Y-134974417D01*
X101497798Y-134970899D01*
X101581117Y-134560471D01*
X101583869Y-134546910D01*
X101613975Y-134493645D01*
X101669640Y-134468248D01*
X101680872Y-134467607D01*
X104774961Y-134467607D01*
X104890336Y-133997517D01*
X104891307Y-133993872D01*
X105158432Y-133063690D01*
X105159717Y-133059566D01*
X105467910Y-132142510D01*
X105469404Y-132138373D01*
X105818132Y-131235975D01*
X105819789Y-131231955D01*
X106208376Y-130345970D01*
X106210232Y-130341982D01*
X106631634Y-129486897D01*
X106637896Y-129474189D01*
X106639911Y-129470322D01*
X107105953Y-128622172D01*
X107107800Y-128618960D01*
X107357282Y-128204112D01*
X105183736Y-125988454D01*
X105156484Y-125933675D01*
X105166635Y-125873338D01*
X105171781Y-125864596D01*
X105410836Y-125502475D01*
X105412836Y-125499563D01*
X106009641Y-124663221D01*
X106012080Y-124659949D01*
X106642866Y-123849185D01*
X106645382Y-123846086D01*
X107309216Y-123062091D01*
X107311871Y-123059085D01*
X108007555Y-122303273D01*
X108010346Y-122300364D01*
X108736720Y-121573992D01*
X108739627Y-121571203D01*
X109495441Y-120875521D01*
X109498448Y-120872866D01*
X110282446Y-120209033D01*
X110285566Y-120206501D01*
X111096330Y-119575718D01*
X111099552Y-119573317D01*
X111935964Y-118976465D01*
X111938822Y-118974503D01*
X112301036Y-118735373D01*
X112360014Y-118719092D01*
X112417299Y-118740588D01*
X112424808Y-118747223D01*
X114655560Y-120929407D01*
X114655561Y-120929408D01*
X115069651Y-120680569D01*
X115072913Y-120678695D01*
X115919588Y-120213833D01*
X115923398Y-120211850D01*
X116789655Y-119785243D01*
X116793609Y-119783404D01*
X117677966Y-119395767D01*
X117682013Y-119394100D01*
X118582716Y-119046201D01*
X118586812Y-119044722D01*
X119502134Y-118737227D01*
X119506276Y-118735937D01*
X120434689Y-118469377D01*
X120438286Y-118468420D01*
X120907477Y-118353285D01*
X120922860Y-115240180D01*
X120942055Y-115182086D01*
X120991732Y-115146367D01*
X121002245Y-115143635D01*
X121427140Y-115057750D01*
X121430621Y-115057110D01*
X122444895Y-114890110D01*
X122448930Y-114889531D01*
X123468939Y-114764712D01*
X123472996Y-114764301D01*
X124497362Y-114681820D01*
X124501373Y-114681581D01*
X125528235Y-114641590D01*
X125532325Y-114641516D01*
X126559983Y-114644079D01*
G37*
%TD.AperFunction*%
%TD*%
M02*
